<?xml version="1.0" ?><!DOCTYPE svg  PUBLIC '-//W3C//DTD SVG 1.0//EN'  'http://www.w3.org/TR/2001/REC-SVG-20010904/DTD/svg10.dtd'><svg enable-background="new 0 0 100 100" height="100px" id="Layer_1" version="1.0" viewBox="0 0 100 100" width="100px" xml:space="preserve" xmlns="http://www.w3.org/2000/svg" xmlns:xlink="http://www.w3.org/1999/xlink"><path d="M79.766,66.9c-4.935-4.934-8.291-11.426-9.362-18.652c4.733-0.755,9.284-2.936,12.93-6.582l-3.333-5  c-2.825,2.829-6.338,4.548-10,5.202v-11.87c0-11.045-8.955-20-20-20s-20,8.955-20,20v11.87c-3.662-0.654-7.175-2.373-10-5.202  l-3.333,5c3.646,3.646,8.196,5.827,12.93,6.582c-1.071,7.226-4.428,13.718-9.362,18.652c-2.923,2.924-6.396,5.287-10.234,6.973  c2.92,2.918,6.79,4.871,11.104,5.379l2.227,5.227c3.679-3.678,9.648-3.678,13.337,0c7.356,7.363,19.297,7.363,26.67,0  c3.685-3.678,9.654-3.678,13.333,0l2.227-5.227C83.21,78.744,87.08,76.791,90,73.873C86.162,72.188,82.688,69.824,79.766,66.9z   M73.298,75.391c-1.071-0.221-2.175-0.338-3.291-0.338c-4.301,0-8.34,1.672-11.384,4.713c-2.305,2.299-5.368,3.568-8.623,3.568  s-6.315-1.264-8.62-3.568c-3.047-3.041-7.09-4.713-11.383-4.713c-1.12,0-2.224,0.109-3.291,0.338l-3.041-2.545  c0.437-0.404,0.863-0.814,1.283-1.23c7.559-7.559,11.719-17.605,11.719-28.282V29.999c0-7.352,5.982-13.333,13.333-13.333  c7.354,0,13.333,5.981,13.333,13.333v13.335c0,10.676,4.16,20.723,11.719,28.282c0.42,0.416,0.847,0.826,1.286,1.23L73.298,75.391z"/></svg>