<?xml version="1.0" ?><!DOCTYPE svg  PUBLIC '-//W3C//DTD SVG 1.0//EN'  'http://www.w3.org/TR/2001/REC-SVG-20010904/DTD/svg10.dtd'><svg enable-background="new 0 0 100 100" height="100px" id="Layer_1" version="1.0" viewBox="0 0 100 100" width="100px" xml:space="preserve" xmlns="http://www.w3.org/2000/svg" xmlns:xlink="http://www.w3.org/1999/xlink"><path d="M83.333,26.667C83.333,17.462,75.872,10,66.667,10C57.461,10,50,17.462,50,26.667v10c-14.421,0-27.305-6.549-35.866-16.824  c-8.678,19.062-3.242,41.916,13.63,54.939c-4.717,4.229-10.935,6.82-17.764,6.82C17.562,86.881,26.745,90,36.667,90  c25.777,0,46.666-20.898,46.666-46.667v-10L90,26.667H83.333z M76.667,43.333c0,22.058-17.943,40-40,40  c-2.715,0-5.395-0.273-8.008-0.808c1.236-0.84,2.425-1.768,3.555-2.779l5.963-5.346l-6.341-4.896  c-11.683-9.021-17.031-23.452-14.583-37.412c9.28,7.235,20.748,11.24,32.747,11.24h6.667V26.667c0-5.514,4.485-10,10-10  c5.514,0,10,4.486,10,10V43.333z"/><path d="M71.667,26.667c0,1.841-1.494,3.333-3.337,3.333C66.494,30,65,28.507,65,26.667s1.494-3.333,3.33-3.333  C70.173,23.333,71.667,24.826,71.667,26.667z"/></svg>